<?xml version="1.0" encoding="UTF-8" standalone="no"?>
<svg
   id="svg4576"
   version="1.1"
   viewBox="0 0 502 100"
   height="100"
   width="502"
   sodipodi:docname="pmos-logo-text.svg"
   inkscape:version="1.2 (dc2aedaf03, 2022-05-15)"
   xmlns:inkscape="http://www.inkscape.org/namespaces/inkscape"
   xmlns:sodipodi="http://sodipodi.sourceforge.net/DTD/sodipodi-0.dtd"
   xmlns="http://www.w3.org/2000/svg"
   xmlns:svg="http://www.w3.org/2000/svg"
   xmlns:rdf="http://www.w3.org/1999/02/22-rdf-syntax-ns#"
   xmlns:cc="http://creativecommons.org/ns#"
   xmlns:dc="http://purl.org/dc/elements/1.1/">
  <sodipodi:namedview
     id="namedview24"
     pagecolor="#ffffff"
     bordercolor="#666666"
     borderopacity="1.0"
     inkscape:showpageshadow="2"
     inkscape:pageopacity="0.0"
     inkscape:pagecheckerboard="0"
     inkscape:deskcolor="#d1d1d1"
     showgrid="false"
     inkscape:zoom="2.7031873"
     inkscape:cx="243.23139"
     inkscape:cy="77.501105"
     inkscape:window-width="2603"
     inkscape:window-height="2124"
     inkscape:window-x="0"
     inkscape:window-y="0"
     inkscape:window-maximized="1"
     inkscape:current-layer="svg4576" />
  <metadata
     id="metadata4582">
    <rdf:RDF>
      <cc:Work
         rdf:about="">
        <dc:format>image/svg+xml</dc:format>
        <dc:type
           rdf:resource="http://purl.org/dc/dcmitype/StillImage" />
        <dc:title />
      </cc:Work>
    </rdf:RDF>
  </metadata>
  <defs
     id="defs4580" />
  <g
     id="g4574"
     transform="rotate(180,50,46.650635)">
    <polygon
       style="fill:#009900"
       id="polygon4564"
       points="65,17 29.8,17 29.7,17.5 25.9,27.8 15,26 0,0 65,0 58,8.5 " />
    <g
       id="g4568"
       transform="rotate(120,50,28.867513)">
      <polygon
         style="fill:#009900"
         id="polygon4566"
         points="65,17 29.8,17 29.7,17.5 25.9,27.8 15,26 0,0 65,0 58,8.5 " />
    </g>
    <g
       id="g4572"
       transform="rotate(-120,50,28.867513)">
      <polygon
         style="fill:#009900"
         id="polygon4570"
         points="65,17 29.8,17 29.7,17.5 25.9,27.8 15,26 0,0 65,0 58,8.5 " />
    </g>
  </g>
  <g
     id="text5129"
     style="font-style:normal;font-variant:normal;font-weight:normal;font-stretch:normal;font-size:40px;line-height:1.25;font-family:'DejaVu Sans';-inkscape-font-specification:'DejaVu Sans';letter-spacing:0px;word-spacing:0px;fill:#ffffff;fill-opacity:1;stroke:none"
     aria-label="postmarketOS"
     transform="matrix(1,0,0,0.99999424,0,12.595233)">
    <path
       id="path5142"
       style="font-style:normal;font-variant:normal;font-weight:normal;font-stretch:normal;font-size:56px;font-family:'DejaVu Sans';-inkscape-font-specification:'DejaVu Sans';fill:#ffffff"
       d="m 115.65302,64.474045 v 16.242187 h -5.05859 V 38.442795 h 5.05859 v 4.648437 q 1.58594,-2.734375 3.99219,-4.046875 2.43359,-1.339843 5.79688,-1.339843 5.57812,0 9.05078,4.429687 3.5,4.429688 3.5,11.648438 0,7.21875 -3.5,11.648437 -3.47266,4.429688 -9.05078,4.429688 -3.36329,0 -5.79688,-1.3125 -2.40625,-1.339844 -3.99219,-4.074219 z m 17.11719,-10.691406 q 0,-5.550782 -2.29687,-8.695313 -2.26954,-3.171875 -6.26172,-3.171875 -3.99219,0 -6.28907,3.171875 -2.26953,3.144531 -2.26953,8.695313 0,5.550781 2.26953,8.722656 2.29688,3.144531 6.28907,3.144531 3.99218,0 6.26172,-3.144531 2.29687,-3.171875 2.29687,-8.722656 z" />
    <path
       id="path5144"
       style="font-style:normal;font-variant:normal;font-weight:normal;font-stretch:normal;font-size:56px;font-family:'DejaVu Sans';-inkscape-font-specification:'DejaVu Sans';fill:#ffffff"
       d="m 158.1999,41.970139 q -4.04688,0 -6.39844,3.171875 -2.35156,3.144531 -2.35156,8.640625 0,5.496093 2.32422,8.667968 2.35156,3.144532 6.42578,3.144532 4.01953,0 6.37109,-3.171875 2.35156,-3.171875 2.35156,-8.640625 0,-5.441407 -2.35156,-8.613282 -2.35156,-3.199218 -6.37109,-3.199218 z m 0,-4.265625 q 6.5625,0 10.30859,4.265625 3.7461,4.265625 3.7461,11.8125 0,7.519531 -3.7461,11.8125 -3.74609,4.265625 -10.30859,4.265625 -6.58985,0 -10.33594,-4.265625 -3.71875,-4.292969 -3.71875,-11.8125 0,-7.546875 3.71875,-11.8125 3.74609,-4.265625 10.33594,-4.265625 z" />
    <path
       id="path5146"
       style="font-style:normal;font-variant:normal;font-weight:normal;font-stretch:normal;font-size:56px;font-family:'DejaVu Sans';-inkscape-font-specification:'DejaVu Sans';fill:#ffffff"
       d="m 200.09052,39.345139 v 4.757812 q -2.13281,-1.09375 -4.42968,-1.640625 -2.29688,-0.546875 -4.75782,-0.546875 -3.74609,0 -5.63281,1.148438 -1.85937,1.148437 -1.85937,3.445312 0,1.75 1.33984,2.761719 1.33984,0.984375 5.38672,1.886719 l 1.72265,0.382812 q 5.35938,1.148438 7.60157,3.253906 2.26953,2.078125 2.26953,5.824219 0,4.265625 -3.39063,6.753906 -3.36328,2.488282 -9.26953,2.488282 -2.46094,0 -5.14062,-0.492188 -2.65235,-0.464844 -5.60547,-1.421875 v -5.195312 q 2.78906,1.449218 5.49609,2.1875 2.70703,0.710937 5.35938,0.710937 3.55468,0 5.46875,-1.203125 1.91406,-1.230469 1.91406,-3.445312 0,-2.050782 -1.39453,-3.144532 -1.36719,-1.09375 -6.04297,-2.105468 l -1.75,-0.410157 q -4.67578,-0.984375 -6.75391,-3.007812 -2.07812,-2.050781 -2.07812,-5.605469 0,-4.320312 3.0625,-6.671875 3.0625,-2.351562 8.69531,-2.351562 2.78906,0 5.25,0.410156 2.46094,0.410156 4.53906,1.230469 z" />
    <path
       id="path5148"
       style="font-style:normal;font-variant:normal;font-weight:normal;font-stretch:normal;font-size:56px;font-family:'DejaVu Sans';-inkscape-font-specification:'DejaVu Sans';fill:#ffffff"
       d="m 214.74677,29.747482 v 8.695313 h 10.36328 v 3.910156 h -10.36328 v 16.625 q 0,3.746094 1.01172,4.8125 1.03906,1.066406 4.1836,1.066406 h 5.16796 v 4.210938 h -5.16796 q -5.82422,0 -8.03907,-2.160156 -2.21484,-2.1875 -2.21484,-7.929688 v -16.625 h -3.69141 v -3.910156 h 3.69141 v -8.695313 z" />
    <path
       id="path5150"
       style="font-style:normal;font-variant:normal;font-weight:normal;font-stretch:normal;font-size:56px;font-family:'DejaVu Sans';-inkscape-font-specification:'DejaVu Sans';fill:#ffffff"
       d="m 255.59834,44.321701 q 1.88671,-3.390625 4.51171,-5.003906 2.625,-1.613281 6.17969,-1.613281 4.78516,0 7.38281,3.363281 2.59766,3.335937 2.59766,9.515625 v 18.484375 h -5.05859 V 50.747482 q 0,-4.402343 -1.5586,-6.535156 -1.55859,-2.132812 -4.75781,-2.132812 -3.91016,0 -6.17969,2.597656 -2.26953,2.597656 -2.26953,7.082031 V 69.067795 H 251.3874 V 50.747482 q 0,-4.429687 -1.5586,-6.535156 -1.55859,-2.132812 -4.8125,-2.132812 -3.85546,0 -6.125,2.625 -2.26953,2.597656 -2.26953,7.054687 v 17.308594 h -5.05859 v -30.625 h 5.05859 v 4.757812 q 1.72266,-2.816406 4.12891,-4.15625 2.40625,-1.339843 5.71484,-1.339843 3.33594,0 5.66016,1.695312 2.35156,1.695313 3.47266,4.921875 z" />
    <path
       id="path5152"
       style="font-style:normal;font-variant:normal;font-weight:normal;font-stretch:normal;font-size:56px;font-family:'DejaVu Sans';-inkscape-font-specification:'DejaVu Sans';fill:#ffffff"
       d="m 300.25068,53.673264 q -6.09766,0 -8.44922,1.394531 -2.35156,1.394531 -2.35156,4.757812 0,2.679688 1.75,4.265625 1.77734,1.558594 4.8125,1.558594 4.18359,0 6.69922,-2.953125 2.54297,-2.980469 2.54297,-7.902344 v -1.121093 z m 10.03516,-2.078125 v 17.472656 h -5.03125 v -4.648438 q -1.72266,2.789063 -4.29297,4.128907 -2.57032,1.3125 -6.28907,1.3125 -4.70312,0 -7.49218,-2.625 -2.76172,-2.652344 -2.76172,-7.082032 0,-5.167968 3.44531,-7.792968 3.47266,-2.625 10.33594,-2.625 h 7.05469 v -0.492188 q 0,-3.472656 -2.29688,-5.359375 -2.26953,-1.914062 -6.39844,-1.914062 -2.625,0 -5.11328,0.628906 -2.48828,0.628906 -4.78515,1.886719 v -4.648438 q 2.76171,-1.066406 5.35937,-1.585937 2.59766,-0.546875 5.05859,-0.546875 6.64454,0 9.92579,3.445312 3.28125,3.445313 3.28125,10.445313 z" />
    <path
       id="path5154"
       style="font-style:normal;font-variant:normal;font-weight:normal;font-stretch:normal;font-size:56px;font-family:'DejaVu Sans';-inkscape-font-specification:'DejaVu Sans';fill:#ffffff"
       d="m 338.42255,43.14592 q -0.84765,-0.492188 -1.85937,-0.710938 -0.98438,-0.246093 -2.1875,-0.246093 -4.26563,0 -6.5625,2.789062 -2.26953,2.761719 -2.26953,7.957031 v 16.132813 h -5.0586 v -30.625 h 5.0586 v 4.757812 q 1.58594,-2.789062 4.1289,-4.128906 2.54297,-1.367187 6.17969,-1.367187 0.51953,0 1.14844,0.08203 0.62891,0.05469 1.39453,0.191406 z" />
    <path
       id="path5156"
       style="font-style:normal;font-variant:normal;font-weight:normal;font-stretch:normal;font-size:56px;font-family:'DejaVu Sans';-inkscape-font-specification:'DejaVu Sans';fill:#ffffff"
       d="m 343.56318,26.52092 h 5.05859 v 25.128906 l 15.01172,-13.207031 h 6.42578 l -16.24218,14.328125 16.92578,16.296875 h -6.5625 l -15.5586,-14.957031 v 14.957031 h -5.05859 z" />
    <path
       id="path5158"
       style="font-style:normal;font-variant:normal;font-weight:normal;font-stretch:normal;font-size:56px;font-family:'DejaVu Sans';-inkscape-font-specification:'DejaVu Sans';fill:#ffffff"
       d="m 400.46552,52.497482 v 2.460938 h -23.13281 q 0.32813,5.195312 3.11719,7.929687 2.8164,2.707032 7.82031,2.707032 2.89844,0 5.60547,-0.710938 2.73437,-0.710937 5.41406,-2.132812 v 4.757812 q -2.70703,1.148438 -5.55078,1.75 -2.84375,0.601563 -5.76953,0.601563 -7.32813,0 -11.62109,-4.265625 -4.26563,-4.265625 -4.26563,-11.539063 0,-7.519531 4.04688,-11.921875 4.07421,-4.429687 10.96484,-4.429687 6.17969,0 9.76172,3.992187 3.60937,3.964844 3.60937,10.800781 z m -5.03125,-1.476562 q -0.0547,-4.128906 -2.32422,-6.589844 -2.24218,-2.460937 -5.96093,-2.460937 -4.21094,0 -6.75391,2.378906 -2.51562,2.378906 -2.89844,6.699219 z" />
    <path
       id="path5160"
       style="font-style:normal;font-variant:normal;font-weight:normal;font-stretch:normal;font-size:56px;font-family:'DejaVu Sans';-inkscape-font-specification:'DejaVu Sans';fill:#ffffff"
       d="m 413.6999,29.747482 v 8.695313 h 10.36328 v 3.910156 H 413.6999 v 16.625 q 0,3.746094 1.01172,4.8125 1.03906,1.066406 4.18359,1.066406 h 5.16797 v 4.210938 h -5.16797 q -5.82422,0 -8.03906,-2.160156 -2.21485,-2.1875 -2.21485,-7.929688 v -16.625 h -3.6914 v -3.910156 h 3.6914 v -8.695313 z" />
    <path
       id="path5162"
       style="font-style:normal;font-variant:normal;font-weight:normal;font-stretch:normal;font-size:56px;font-family:'DejaVu Sans';-inkscape-font-specification:'DejaVu Sans';fill:#ffffff"
       d="m 447.49677,31.98967 q -6.01562,0 -9.57031,4.484375 -3.52734,4.484375 -3.52734,12.222656 0,7.710938 3.52734,12.195313 3.55469,4.484375 9.57031,4.484375 6.01563,0 9.51563,-4.484375 3.52734,-4.484375 3.52734,-12.195313 0,-7.738281 -3.52734,-12.222656 -3.5,-4.484375 -9.51563,-4.484375 z m 0,-4.484375 q 8.58594,0 13.72657,5.769531 5.14062,5.742188 5.14062,15.421875 0,9.652344 -5.14062,15.421875 -5.14063,5.742188 -13.72657,5.742188 -8.61328,0 -13.78125,-5.742188 -5.14062,-5.742187 -5.14062,-15.421875 0,-9.679687 5.14062,-15.421875 5.16797,-5.769531 13.78125,-5.769531 z" />
    <path
       id="path5164"
       style="font-style:normal;font-variant:normal;font-weight:normal;font-stretch:normal;font-size:56px;font-family:'DejaVu Sans';-inkscape-font-specification:'DejaVu Sans';fill:#ffffff"
       d="m 499.47724,29.58342 v 5.386719 q -3.14453,-1.503907 -5.93359,-2.242188 -2.78906,-0.738281 -5.38672,-0.738281 -4.51172,0 -6.97266,1.75 -2.43359,1.75 -2.43359,4.976562 0,2.707032 1.61328,4.101563 1.64063,1.367187 6.17969,2.214844 l 3.33594,0.683593 q 6.17968,1.175782 9.10546,4.15625 2.95313,2.953125 2.95313,7.929688 0,5.933594 -3.99219,8.996094 -3.96484,3.0625 -11.64844,3.0625 -2.89843,0 -6.17968,-0.65625 -3.25391,-0.65625 -6.75391,-1.941407 v -5.6875 q 3.36328,1.886719 6.58984,2.84375 3.22657,0.957032 6.34375,0.957032 4.73047,0 7.30079,-1.859375 2.57031,-1.859375 2.57031,-5.304688 0,-3.007812 -1.85938,-4.703125 -1.83203,-1.695312 -6.04297,-2.542969 l -3.36328,-0.65625 q -6.17968,-1.230468 -8.9414,-3.855468 -2.76172,-2.625 -2.76172,-7.300782 0,-5.414062 3.80078,-8.53125 3.82812,-3.117187 10.52734,-3.117187 2.8711,0 5.85157,0.519531 2.98046,0.519531 6.09765,1.558594 z" />
  </g>
</svg>
