<?xml version="1.0" encoding="UTF-8"?>
<svg width="443" height="64" version="1.1" viewBox="0 0 443 64" xmlns="http://www.w3.org/2000/svg">
 <g transform="matrix(-.7 0 0 -.7 73 63)">
  <polygon points="30 18 26 28 15 26 0 0 65 0 58 8 65 17 30 17"/>
  <g transform="rotate(120 50 29)">
   <polygon points="30 18 26 28 15 26 0 0 65 0 58 8 65 17 30 17"/>
  </g>
  <g transform="rotate(240 50 29)">
   <polygon points="30 18 26 28 15 26 0 0 65 0 58 8 65 17 30 17"/>
  </g>
 </g>
 <g transform="translate(-24 -22)" aria-label="postmarketOS">
  <path d="m126 68q-2 0-3-0.4t-2-0.9q-1-0.6-2-1-0.8-0.8-1-2h-0.3q0.08 0.9 0.2 2 0.05 0.7 0.1 1 0.05 0.7 0.05 1v13h-5v-43h4l0.7 4h0.2q0.6-1 1-2 0.8-0.8 2-1 1-0.6 2-1 1-0.4 3-0.4 3 0 5 1 2 1 4 3 2 2 2 5 0.8 3 0.8 7 0 4-0.8 7-0.8 3-2 5-1 2-4 3-2 1-5 1zm-1-27q-2 0-4 0.6-1 0.6-2 2-0.9 1-1 3-0.4 2-0.5 5v1q0 3 0.4 5 0.4 2 1 4 0.9 1 2 2 1 0.7 4 0.7 4 0 5-3 2-3 2-9 0-6-2-9-2-3-5-3z"/>
  <path d="m169 53q0 4-0.9 7-0.9 3-3 5-2 2-4 3-2 1-5 1-3 0-5-1-2-1-4-3-2-2-3-5-1-3-1-7 0-4 0.9-7 0.9-3 3-5 2-2 4-3 2-1 5-1 3 0 5 1 2 1 4 3 2 2 3 5 1 3 1 7zm-21 0q0 6 2 9 2 3 6 3t6-3q2-3 2-9 0-6-2-9-2-3-6-3-4 0-6 3-2 3-2 9z"/>
  <path d="m195 60q0 2-0.8 4t-2 3q-1 1-4 2-2 0.5-5 0.5-3 0-5-0.5-2-0.5-4-1v-5q0.8 0.4 2 0.9 1 0.4 2 0.7t2 0.5q1 0.2 2 0.2 2 0 3-0.3 1-0.3 2-0.8 0.8-0.6 1-1 0.4-0.8 0.4-2 0-0.8-0.3-2-0.3-0.7-1-1-0.7-0.7-2-1-1-0.7-3-2-2-0.8-4-2-2-0.8-3-2-1-1-2-2-0.6-1-0.6-3 0-2 0.7-3 0.8-2 2-3 1-1 3-2 2-0.5 4-0.5 3 0 5 0.6 2 0.6 4 2l-2 4q-2-0.8-4-1-2-0.6-4-0.6-3 0-4 0.9-1 0.9-1 3 0 1 0.3 2 0.3 0.7 1 1 0.8 0.6 2 1 1 0.6 3 1 2 0.8 4 2 2 0.8 3 2 1 1 2 2t0.6 3z"/>
  <path d="m212 64q0.5 0 1-0.05 0.6-0.05 1-0.1 0.6-0.08 1-0.2 0.5-0.1 0.7-0.2v4q-0.4 0.2-0.9 0.3-0.5 0.2-1 0.3-0.7 0.1-1 0.2-0.7 0.08-1 0.08-2 0-3-0.4t-3-2q-1-1-2-3-0.6-2-0.6-5v-17h-4v-2l4-2 2-6h3v7h8v4h-8v17q0 3 0.8 4 0.9 1 3 1z"/>
  <path d="m258 68v-19q0-4-1-5-1-2-4-2-2 0-3 0.7-1 0.6-2 2-0.9 1-1 3-0.4 2-0.4 4v17h-5v-19q0-4-1-5-1-2-4-2-2 0-4 0.7-1 0.7-2 2-0.8 1-1 3-0.4 2-0.4 5v16h-5v-30h4l0.7 4h0.3q0.7-1 2-2 0.9-0.9 2-1 1-0.6 2-0.8 1-0.3 2-0.3 3 0 5 1 2 1 3 4h0.2q0.7-1 2-2 1-0.9 2-2 1-0.6 3-0.9 1-0.3 3-0.3 5 0 7 3 2 3 2 8v20z"/>
  <path d="m289 68-1-4h-0.2q-0.9 1-2 2-0.9 0.9-2 1t-2 0.8q-1 0.3-3 0.3-2 0-3-0.5-2-0.5-3-2-1-1-2-3-0.7-2-0.7-4 0-4 3-7 3-2 10-3l5-0.2v-2q0-2-0.4-3-0.4-1-1-2-0.7-0.8-2-1-1-0.3-3-0.3-2 0-4 0.7-2 0.7-4 2l-2-4q2-1 5-2t5-0.8q3 0 5 0.6 2 0.5 3 2 1 1 2 3 0.7 2 0.7 5v21zm-9-3q2 0 3-0.5 1-0.5 2-2 1-1 2-3 0.6-2 0.6-4v-3l-4 0.2q-2 0.1-4 0.5t-3 1q-1 0.8-1 2-0.4 1-0.4 2 0 3 1 4 1 1 4 1z"/>
  <path d="m314 37q0.8 0 2 0.08 1 0.05 2 0.2l-0.7 5q-0.8-0.1-2-0.2-0.8-0.1-2-0.1-2 0-3 0.7-1 0.7-2 2-1 1-2 3-0.5 2-0.5 4v16h-5v-30h4l0.6 5h0.2q0.7-1 1-2 0.8-1 2-2 1-0.8 2-1 1-0.5 3-0.5z"/>
  <path d="m328 52 12-15h6l-11 13 12 17h-6l-9-14-3 2v12h-5v-43h5v20l-0.4 8z"/>
  <path d="m363 68q-3 0-5-1t-4-3q-2-2-3-5-1-3-1-7 0-4 0.9-7t3-5q2-2 4-3 2-1 5-1 3 0 5 1 2 1 4 3 2 2 2 4 0.8 2 0.8 5v3h-19q0.1 5 2 8 2 2 6 2 1 0 3-0.1 1-0.1 2-0.4 1-0.3 2-0.7 1-0.4 2-0.9v4q-1 0.5-2 0.9-1 0.4-2 0.6-1 0.2-2 0.4-1 0.1-3 0.1zm-1-27q-3 0-5 2-2 2-2 6h13q0-2-0.4-3-0.4-2-1-3-0.8-1-2-2-1-0.6-3-0.6z"/>
  <path d="m391 64q0.5 0 1-0.05 0.6-0.05 1-0.1 0.6-0.08 1-0.2 0.5-0.1 0.7-0.2v4q-0.4 0.2-0.9 0.3-0.5 0.2-1 0.3-0.7 0.1-1 0.2-0.7 0.08-1 0.08-2 0-3-0.4t-3-2q-1-1-2-3-0.6-2-0.6-5v-17h-4v-2l4-2 2-6h3v7h8v4h-8v17q0 3 0.8 4 0.9 1 3 1z"/>
  <path d="m434 48q0 5-1 8-1 4-3 7-2 3-5 4-3 1-7 1-4 0-8-1-3-1-5-4-2-3-3-7-1-4-1-8 0-5 1-8 1-4 3-6 2-3 5-4 3-1 8-1 4 0 7 1 3 1 5 4 2 3 3 6 1 4 1 8zm-29 0q0 4 0.7 7 0.7 3 2 5 1 2 4 3 2 1 5 1 3 0 5-1 2-1 4-3 1-2 2-5 0.7-3 0.7-7 0-4-0.7-7-0.7-3-2-5-1-2-4-3-2-1-5-1-3 0-5 1-2 1-4 3-1 2-2 5t-0.7 7z"/>
  <path d="m464 57q0 3-1 5-0.9 2-3 4t-4 2q-3 0.7-6 0.7-3 0-6-0.5-3-0.5-4-1v-5q0.9 0.4 2 0.9 1 0.4 3 0.7t3 0.5q1 0.2 3 0.2 4 0 6-2 2-2 2-5 0-1-0.4-3-0.4-1-1-2-1-0.9-3-2-2-0.9-4-2-2-1-4-2-2-1-3-3-1-1-2-3-0.5-2-0.5-4 0-2 0.9-4t2-3q2-1 4-2 2-0.7 5-0.7 3 0 6 0.6 3 0.6 5 2l-2 4q-2-0.8-4-1-2-0.6-5-0.6-3 0-5 2-2 2-2 4 0 2 0.4 3 0.4 1 1 2 1 0.9 3 2 2 0.8 4 2 2 1 4 2 2 1 3 2t2 3q0.7 2 0.7 4z"/>
 </g>
</svg>
